<svg width="50" height="50" viewBox="0 0 50 50" fill="none" xmlns="http://www.w3.org/2000/svg">
<path d="M24.9997 33.3333V45.8333M24.9997 33.3333L29.1663 37.4999M24.9997 33.3333L20.833 37.4999" stroke="black" stroke-width="3.125" stroke-linecap="round" stroke-linejoin="round"/>
<path d="M45.8332 27.8187C45.8332 32.7 42.8248 36.8875 38.5415 38.6667M29.9603 16.7229C31.2365 16.2797 32.578 16.0536 33.929 16.0542C35.2915 16.0542 36.6019 16.2813 37.8248 16.6979M37.8248 16.6979C37.1603 10.8208 32.1165 6.25 25.9915 6.25C19.4165 6.25 14.0873 11.5167 14.0873 18.0146C14.0867 19.4102 14.3365 20.7947 14.8248 22.1021M37.8248 16.6979C39.6549 17.3225 41.3048 18.3845 42.6311 19.7917M14.8248 22.1021C14.255 21.9919 13.676 21.9361 13.0957 21.9354C8.16442 21.9375 4.1665 25.8875 4.1665 30.7604C4.1665 34.7104 6.79359 38.0542 10.4165 39.1792M14.8248 22.1021C15.9774 22.3265 17.0746 22.7753 18.054 23.4229" stroke="black" stroke-width="3.125" stroke-linecap="round"/>
</svg>
